<mxfile host="app.diagrams.net" modified="2021-10-15T01:15:08.638Z" agent="5.0 (Windows)" etag="BlusU3Blk7nP6VmVTY8X" version="14.4.4" type="github">
  <diagram id="C5RBs43oDa-KdzZeNtuy" name="Page-1">
    <mxGraphModel dx="1730" dy="997" grid="1" gridSize="10" guides="1" tooltips="1" connect="1" arrows="1" fold="1" page="1" pageScale="1" pageWidth="827" pageHeight="1169" math="0" shadow="0">
      <root>
        <mxCell id="WIyWlLk6GJQsqaUBKTNV-0" />
        <mxCell id="WIyWlLk6GJQsqaUBKTNV-1" parent="WIyWlLk6GJQsqaUBKTNV-0" />
        <mxCell id="cW8ALHQhy1l2QDehml8E-0" value="&lt;div&gt;Input word(plaintext)&lt;/div&gt;&lt;div&gt;(64 bit)&lt;br&gt;&lt;/div&gt;" style="rounded=0;whiteSpace=wrap;html=1;" vertex="1" parent="WIyWlLk6GJQsqaUBKTNV-1">
          <mxGeometry x="280" y="60" width="230" height="40" as="geometry" />
        </mxCell>
        <mxCell id="cW8ALHQhy1l2QDehml8E-17" style="edgeStyle=orthogonalEdgeStyle;rounded=0;orthogonalLoop=1;jettySize=auto;html=1;exitX=0.5;exitY=1;exitDx=0;exitDy=0;entryX=0.5;entryY=0;entryDx=0;entryDy=0;entryPerimeter=0;" edge="1" parent="WIyWlLk6GJQsqaUBKTNV-1" source="cW8ALHQhy1l2QDehml8E-1" target="cW8ALHQhy1l2QDehml8E-3">
          <mxGeometry relative="1" as="geometry" />
        </mxCell>
        <mxCell id="cW8ALHQhy1l2QDehml8E-1" value="B Reg" style="rounded=0;whiteSpace=wrap;html=1;" vertex="1" parent="WIyWlLk6GJQsqaUBKTNV-1">
          <mxGeometry x="522.5" y="140" width="170" height="30" as="geometry" />
        </mxCell>
        <mxCell id="cW8ALHQhy1l2QDehml8E-29" style="edgeStyle=orthogonalEdgeStyle;rounded=0;orthogonalLoop=1;jettySize=auto;html=1;exitX=0.5;exitY=1;exitDx=0;exitDy=0;exitPerimeter=0;entryX=0.5;entryY=0;entryDx=0;entryDy=0;" edge="1" parent="WIyWlLk6GJQsqaUBKTNV-1" source="cW8ALHQhy1l2QDehml8E-2" target="cW8ALHQhy1l2QDehml8E-13">
          <mxGeometry relative="1" as="geometry" />
        </mxCell>
        <mxCell id="cW8ALHQhy1l2QDehml8E-145" style="edgeStyle=orthogonalEdgeStyle;rounded=0;orthogonalLoop=1;jettySize=auto;html=1;exitX=1;exitY=0.5;exitDx=0;exitDy=0;exitPerimeter=0;entryX=1;entryY=0.5;entryDx=0;entryDy=0;entryPerimeter=0;" edge="1" parent="WIyWlLk6GJQsqaUBKTNV-1" target="cW8ALHQhy1l2QDehml8E-2">
          <mxGeometry relative="1" as="geometry">
            <mxPoint x="610" y="214.82352941176475" as="sourcePoint" />
          </mxGeometry>
        </mxCell>
        <mxCell id="cW8ALHQhy1l2QDehml8E-2" value="" style="verticalLabelPosition=bottom;verticalAlign=top;html=1;shape=mxgraph.flowchart.or;" vertex="1" parent="WIyWlLk6GJQsqaUBKTNV-1">
          <mxGeometry x="152.5" y="190" width="55" height="50" as="geometry" />
        </mxCell>
        <mxCell id="cW8ALHQhy1l2QDehml8E-19" style="edgeStyle=orthogonalEdgeStyle;rounded=0;orthogonalLoop=1;jettySize=auto;html=1;exitX=0.5;exitY=1;exitDx=0;exitDy=0;exitPerimeter=0;" edge="1" parent="WIyWlLk6GJQsqaUBKTNV-1" source="cW8ALHQhy1l2QDehml8E-3" target="cW8ALHQhy1l2QDehml8E-14">
          <mxGeometry relative="1" as="geometry" />
        </mxCell>
        <mxCell id="cW8ALHQhy1l2QDehml8E-3" value="" style="verticalLabelPosition=bottom;verticalAlign=top;html=1;shape=mxgraph.flowchart.or;" vertex="1" parent="WIyWlLk6GJQsqaUBKTNV-1">
          <mxGeometry x="580" y="240" width="55" height="50" as="geometry" />
        </mxCell>
        <mxCell id="cW8ALHQhy1l2QDehml8E-28" style="edgeStyle=orthogonalEdgeStyle;rounded=0;orthogonalLoop=1;jettySize=auto;html=1;exitX=0.5;exitY=1;exitDx=0;exitDy=0;entryX=0.5;entryY=0;entryDx=0;entryDy=0;entryPerimeter=0;" edge="1" parent="WIyWlLk6GJQsqaUBKTNV-1" source="cW8ALHQhy1l2QDehml8E-6" target="cW8ALHQhy1l2QDehml8E-2">
          <mxGeometry relative="1" as="geometry" />
        </mxCell>
        <mxCell id="cW8ALHQhy1l2QDehml8E-6" value="A Reg" style="rounded=0;whiteSpace=wrap;html=1;" vertex="1" parent="WIyWlLk6GJQsqaUBKTNV-1">
          <mxGeometry x="95" y="140" width="170" height="30" as="geometry" />
        </mxCell>
        <mxCell id="cW8ALHQhy1l2QDehml8E-12" value="" style="shape=orEllipse;perimeter=ellipsePerimeter;whiteSpace=wrap;html=1;backgroundOutline=1;" vertex="1" parent="WIyWlLk6GJQsqaUBKTNV-1">
          <mxGeometry x="582.5" y="360" width="50" height="50" as="geometry" />
        </mxCell>
        <mxCell id="cW8ALHQhy1l2QDehml8E-13" value="&lt;font style=&quot;font-size: 18px&quot;&gt;&amp;lt;&amp;lt;&amp;lt;&lt;/font&gt;" style="rounded=0;whiteSpace=wrap;html=1;" vertex="1" parent="WIyWlLk6GJQsqaUBKTNV-1">
          <mxGeometry x="135" y="260" width="90" height="30" as="geometry" />
        </mxCell>
        <mxCell id="cW8ALHQhy1l2QDehml8E-26" style="edgeStyle=orthogonalEdgeStyle;rounded=0;orthogonalLoop=1;jettySize=auto;html=1;exitX=0.5;exitY=1;exitDx=0;exitDy=0;entryX=0.5;entryY=0;entryDx=0;entryDy=0;" edge="1" parent="WIyWlLk6GJQsqaUBKTNV-1" source="cW8ALHQhy1l2QDehml8E-14" target="cW8ALHQhy1l2QDehml8E-12">
          <mxGeometry relative="1" as="geometry" />
        </mxCell>
        <mxCell id="cW8ALHQhy1l2QDehml8E-14" value="&lt;font style=&quot;font-size: 18px&quot;&gt;&amp;lt;&amp;lt;&amp;lt;&lt;/font&gt;" style="rounded=0;whiteSpace=wrap;html=1;" vertex="1" parent="WIyWlLk6GJQsqaUBKTNV-1">
          <mxGeometry x="562.5" y="310" width="90" height="30" as="geometry" />
        </mxCell>
        <mxCell id="cW8ALHQhy1l2QDehml8E-11" value="" style="shape=orEllipse;perimeter=ellipsePerimeter;whiteSpace=wrap;html=1;backgroundOutline=1;" vertex="1" parent="WIyWlLk6GJQsqaUBKTNV-1">
          <mxGeometry x="155" y="320" width="50" height="50" as="geometry" />
        </mxCell>
        <mxCell id="cW8ALHQhy1l2QDehml8E-31" style="edgeStyle=orthogonalEdgeStyle;rounded=0;orthogonalLoop=1;jettySize=auto;html=1;exitX=0.5;exitY=1;exitDx=0;exitDy=0;" edge="1" parent="WIyWlLk6GJQsqaUBKTNV-1" source="cW8ALHQhy1l2QDehml8E-13" target="cW8ALHQhy1l2QDehml8E-11">
          <mxGeometry relative="1" as="geometry">
            <mxPoint x="180" y="440" as="targetPoint" />
            <mxPoint x="180" y="330" as="sourcePoint" />
          </mxGeometry>
        </mxCell>
        <mxCell id="cW8ALHQhy1l2QDehml8E-34" value="" style="shape=trapezoid;perimeter=trapezoidPerimeter;whiteSpace=wrap;html=1;fixedSize=1;direction=west;" vertex="1" parent="WIyWlLk6GJQsqaUBKTNV-1">
          <mxGeometry x="155" y="420" width="100" height="40" as="geometry" />
        </mxCell>
        <mxCell id="cW8ALHQhy1l2QDehml8E-40" value="" style="shape=trapezoid;perimeter=trapezoidPerimeter;whiteSpace=wrap;html=1;fixedSize=1;direction=west;" vertex="1" parent="WIyWlLk6GJQsqaUBKTNV-1">
          <mxGeometry x="582.5" y="440" width="100" height="40" as="geometry" />
        </mxCell>
        <mxCell id="cW8ALHQhy1l2QDehml8E-42" value="" style="endArrow=classic;html=1;exitX=0.5;exitY=1;exitDx=0;exitDy=0;entryX=0.75;entryY=1;entryDx=0;entryDy=0;" edge="1" parent="WIyWlLk6GJQsqaUBKTNV-1" source="cW8ALHQhy1l2QDehml8E-12" target="cW8ALHQhy1l2QDehml8E-40">
          <mxGeometry width="50" height="50" relative="1" as="geometry">
            <mxPoint x="650" y="610" as="sourcePoint" />
            <mxPoint x="700" y="560" as="targetPoint" />
          </mxGeometry>
        </mxCell>
        <mxCell id="cW8ALHQhy1l2QDehml8E-44" value="" style="endArrow=classic;html=1;exitX=0.67;exitY=0;exitDx=0;exitDy=0;exitPerimeter=0;entryX=0;entryY=0.5;entryDx=0;entryDy=0;" edge="1" parent="WIyWlLk6GJQsqaUBKTNV-1" source="cW8ALHQhy1l2QDehml8E-34" target="cW8ALHQhy1l2QDehml8E-6">
          <mxGeometry width="50" height="50" relative="1" as="geometry">
            <mxPoint x="180" y="560" as="sourcePoint" />
            <mxPoint x="70" y="180" as="targetPoint" />
            <Array as="points">
              <mxPoint x="188" y="490" />
              <mxPoint x="60" y="490" />
              <mxPoint x="60" y="155" />
            </Array>
          </mxGeometry>
        </mxCell>
        <mxCell id="cW8ALHQhy1l2QDehml8E-46" value="" style="endArrow=classic;html=1;entryX=1;entryY=0.5;entryDx=0;entryDy=0;exitX=0.25;exitY=0;exitDx=0;exitDy=0;" edge="1" parent="WIyWlLk6GJQsqaUBKTNV-1" source="cW8ALHQhy1l2QDehml8E-40" target="cW8ALHQhy1l2QDehml8E-1">
          <mxGeometry width="50" height="50" relative="1" as="geometry">
            <mxPoint x="658" y="590" as="sourcePoint" />
            <mxPoint x="440" y="410" as="targetPoint" />
            <Array as="points">
              <mxPoint x="658" y="520" />
              <mxPoint x="720" y="520" />
              <mxPoint x="720" y="155" />
            </Array>
          </mxGeometry>
        </mxCell>
        <mxCell id="cW8ALHQhy1l2QDehml8E-47" value="" style="endArrow=classic;html=1;exitX=0.25;exitY=1;exitDx=0;exitDy=0;entryX=0.5;entryY=0;entryDx=0;entryDy=0;" edge="1" parent="WIyWlLk6GJQsqaUBKTNV-1" source="cW8ALHQhy1l2QDehml8E-0" target="cW8ALHQhy1l2QDehml8E-6">
          <mxGeometry width="50" height="50" relative="1" as="geometry">
            <mxPoint x="390" y="360" as="sourcePoint" />
            <mxPoint x="440" y="310" as="targetPoint" />
            <Array as="points">
              <mxPoint x="338" y="120" />
              <mxPoint x="180" y="120" />
            </Array>
          </mxGeometry>
        </mxCell>
        <mxCell id="cW8ALHQhy1l2QDehml8E-48" value="" style="endArrow=classic;html=1;exitX=0.75;exitY=1;exitDx=0;exitDy=0;entryX=0.5;entryY=0;entryDx=0;entryDy=0;" edge="1" parent="WIyWlLk6GJQsqaUBKTNV-1" source="cW8ALHQhy1l2QDehml8E-0" target="cW8ALHQhy1l2QDehml8E-1">
          <mxGeometry width="50" height="50" relative="1" as="geometry">
            <mxPoint x="390" y="360" as="sourcePoint" />
            <mxPoint x="440" y="310" as="targetPoint" />
            <Array as="points">
              <mxPoint x="453" y="120" />
              <mxPoint x="608" y="120" />
            </Array>
          </mxGeometry>
        </mxCell>
        <mxCell id="cW8ALHQhy1l2QDehml8E-49" value="&lt;div&gt;output word (Encrypted)&lt;/div&gt;&lt;div&gt;(64 bit)&lt;br&gt;&lt;/div&gt;" style="rounded=0;whiteSpace=wrap;html=1;" vertex="1" parent="WIyWlLk6GJQsqaUBKTNV-1">
          <mxGeometry x="280" y="520" width="230" height="40" as="geometry" />
        </mxCell>
        <mxCell id="cW8ALHQhy1l2QDehml8E-50" value="" style="endArrow=classic;html=1;entryX=0.25;entryY=0;entryDx=0;entryDy=0;exitX=0.25;exitY=0;exitDx=0;exitDy=0;" edge="1" parent="WIyWlLk6GJQsqaUBKTNV-1" source="cW8ALHQhy1l2QDehml8E-34" target="cW8ALHQhy1l2QDehml8E-49">
          <mxGeometry width="50" height="50" relative="1" as="geometry">
            <mxPoint x="150" y="600" as="sourcePoint" />
            <mxPoint x="200" y="550" as="targetPoint" />
            <Array as="points">
              <mxPoint x="230" y="500" />
              <mxPoint x="300" y="500" />
              <mxPoint x="338" y="500" />
            </Array>
          </mxGeometry>
        </mxCell>
        <mxCell id="cW8ALHQhy1l2QDehml8E-51" value="" style="endArrow=classic;html=1;exitX=0.75;exitY=0;exitDx=0;exitDy=0;entryX=0.75;entryY=0;entryDx=0;entryDy=0;" edge="1" parent="WIyWlLk6GJQsqaUBKTNV-1" source="cW8ALHQhy1l2QDehml8E-40" target="cW8ALHQhy1l2QDehml8E-49">
          <mxGeometry width="50" height="50" relative="1" as="geometry">
            <mxPoint x="440" y="760" as="sourcePoint" />
            <mxPoint x="490" y="710" as="targetPoint" />
            <Array as="points">
              <mxPoint x="608" y="500" />
              <mxPoint x="530" y="500" />
              <mxPoint x="453" y="500" />
            </Array>
          </mxGeometry>
        </mxCell>
        <mxCell id="cW8ALHQhy1l2QDehml8E-52" value="" style="endArrow=classic;html=1;exitX=0.5;exitY=1;exitDx=0;exitDy=0;entryX=0.75;entryY=1;entryDx=0;entryDy=0;" edge="1" parent="WIyWlLk6GJQsqaUBKTNV-1" source="cW8ALHQhy1l2QDehml8E-11" target="cW8ALHQhy1l2QDehml8E-34">
          <mxGeometry width="50" height="50" relative="1" as="geometry">
            <mxPoint x="150" y="460" as="sourcePoint" />
            <mxPoint x="200" y="410" as="targetPoint" />
          </mxGeometry>
        </mxCell>
        <mxCell id="cW8ALHQhy1l2QDehml8E-53" value="A Reg" style="rounded=0;whiteSpace=wrap;html=1;" vertex="1" parent="WIyWlLk6GJQsqaUBKTNV-1">
          <mxGeometry x="95" y="640" width="170" height="30" as="geometry" />
        </mxCell>
        <mxCell id="cW8ALHQhy1l2QDehml8E-60" style="edgeStyle=orthogonalEdgeStyle;rounded=0;orthogonalLoop=1;jettySize=auto;html=1;exitX=0.5;exitY=1;exitDx=0;exitDy=0;entryX=0.5;entryY=0;entryDx=0;entryDy=0;" edge="1" parent="WIyWlLk6GJQsqaUBKTNV-1" source="cW8ALHQhy1l2QDehml8E-54" target="cW8ALHQhy1l2QDehml8E-57">
          <mxGeometry relative="1" as="geometry" />
        </mxCell>
        <mxCell id="cW8ALHQhy1l2QDehml8E-54" value="B Reg" style="rounded=0;whiteSpace=wrap;html=1;" vertex="1" parent="WIyWlLk6GJQsqaUBKTNV-1">
          <mxGeometry x="522.5" y="640" width="170" height="30" as="geometry" />
        </mxCell>
        <mxCell id="cW8ALHQhy1l2QDehml8E-57" value="" style="shape=orEllipse;perimeter=ellipsePerimeter;whiteSpace=wrap;html=1;backgroundOutline=1;" vertex="1" parent="WIyWlLk6GJQsqaUBKTNV-1">
          <mxGeometry x="582.5" y="700" width="50" height="50" as="geometry" />
        </mxCell>
        <mxCell id="cW8ALHQhy1l2QDehml8E-59" value="" style="endArrow=classic;html=1;exitX=0.75;exitY=0;exitDx=0;exitDy=0;entryX=0.75;entryY=0;entryDx=0;entryDy=0;" edge="1" parent="WIyWlLk6GJQsqaUBKTNV-1" source="cW8ALHQhy1l2QDehml8E-76" target="cW8ALHQhy1l2QDehml8E-83">
          <mxGeometry width="50" height="50" relative="1" as="geometry">
            <mxPoint x="150" y="680" as="sourcePoint" />
            <mxPoint x="200" y="630" as="targetPoint" />
            <Array as="points">
              <mxPoint x="608" y="1020" />
              <mxPoint x="453" y="1020" />
            </Array>
          </mxGeometry>
        </mxCell>
        <mxCell id="cW8ALHQhy1l2QDehml8E-61" value="&lt;font style=&quot;font-size: 18px&quot;&gt;&amp;gt;&amp;gt;&amp;gt;&lt;/font&gt;" style="rounded=0;whiteSpace=wrap;html=1;" vertex="1" parent="WIyWlLk6GJQsqaUBKTNV-1">
          <mxGeometry x="562.5" y="780" width="90" height="30" as="geometry" />
        </mxCell>
        <mxCell id="cW8ALHQhy1l2QDehml8E-63" value="" style="verticalLabelPosition=bottom;verticalAlign=top;html=1;shape=mxgraph.flowchart.or;" vertex="1" parent="WIyWlLk6GJQsqaUBKTNV-1">
          <mxGeometry x="580" y="850" width="55" height="50" as="geometry" />
        </mxCell>
        <mxCell id="cW8ALHQhy1l2QDehml8E-135" style="edgeStyle=orthogonalEdgeStyle;rounded=0;orthogonalLoop=1;jettySize=auto;html=1;exitX=0;exitY=0.25;exitDx=0;exitDy=0;entryX=1;entryY=0.5;entryDx=0;entryDy=0;" edge="1" parent="WIyWlLk6GJQsqaUBKTNV-1" source="cW8ALHQhy1l2QDehml8E-129" target="cW8ALHQhy1l2QDehml8E-64">
          <mxGeometry relative="1" as="geometry" />
        </mxCell>
        <mxCell id="cW8ALHQhy1l2QDehml8E-64" value="" style="shape=orEllipse;perimeter=ellipsePerimeter;whiteSpace=wrap;html=1;backgroundOutline=1;" vertex="1" parent="WIyWlLk6GJQsqaUBKTNV-1">
          <mxGeometry x="155" y="700" width="50" height="50" as="geometry" />
        </mxCell>
        <mxCell id="cW8ALHQhy1l2QDehml8E-65" value="&lt;font style=&quot;font-size: 18px&quot;&gt;&amp;gt;&amp;gt;&amp;gt;&lt;/font&gt;" style="rounded=0;whiteSpace=wrap;html=1;" vertex="1" parent="WIyWlLk6GJQsqaUBKTNV-1">
          <mxGeometry x="135" y="780" width="90" height="30" as="geometry" />
        </mxCell>
        <mxCell id="cW8ALHQhy1l2QDehml8E-66" value="" style="verticalLabelPosition=bottom;verticalAlign=top;html=1;shape=mxgraph.flowchart.or;" vertex="1" parent="WIyWlLk6GJQsqaUBKTNV-1">
          <mxGeometry x="152.5" y="850" width="55" height="50" as="geometry" />
        </mxCell>
        <mxCell id="cW8ALHQhy1l2QDehml8E-69" value="" style="endArrow=classic;html=1;exitX=0.5;exitY=1;exitDx=0;exitDy=0;entryX=0.5;entryY=0;entryDx=0;entryDy=0;" edge="1" parent="WIyWlLk6GJQsqaUBKTNV-1" source="cW8ALHQhy1l2QDehml8E-53" target="cW8ALHQhy1l2QDehml8E-64">
          <mxGeometry width="50" height="50" relative="1" as="geometry">
            <mxPoint x="160" y="730" as="sourcePoint" />
            <mxPoint x="210" y="680" as="targetPoint" />
          </mxGeometry>
        </mxCell>
        <mxCell id="cW8ALHQhy1l2QDehml8E-71" value="" style="endArrow=classic;html=1;entryX=0.5;entryY=0;entryDx=0;entryDy=0;exitX=0.5;exitY=1;exitDx=0;exitDy=0;" edge="1" parent="WIyWlLk6GJQsqaUBKTNV-1" source="cW8ALHQhy1l2QDehml8E-64" target="cW8ALHQhy1l2QDehml8E-65">
          <mxGeometry width="50" height="50" relative="1" as="geometry">
            <mxPoint x="150" y="820" as="sourcePoint" />
            <mxPoint x="200" y="770" as="targetPoint" />
          </mxGeometry>
        </mxCell>
        <mxCell id="cW8ALHQhy1l2QDehml8E-72" value="" style="endArrow=classic;html=1;exitX=0.5;exitY=1;exitDx=0;exitDy=0;entryX=0.5;entryY=0;entryDx=0;entryDy=0;entryPerimeter=0;" edge="1" parent="WIyWlLk6GJQsqaUBKTNV-1" source="cW8ALHQhy1l2QDehml8E-65" target="cW8ALHQhy1l2QDehml8E-66">
          <mxGeometry width="50" height="50" relative="1" as="geometry">
            <mxPoint x="150" y="820" as="sourcePoint" />
            <mxPoint x="200" y="770" as="targetPoint" />
          </mxGeometry>
        </mxCell>
        <mxCell id="cW8ALHQhy1l2QDehml8E-73" value="" style="endArrow=classic;html=1;entryX=0.5;entryY=0;entryDx=0;entryDy=0;exitX=0.5;exitY=1;exitDx=0;exitDy=0;" edge="1" parent="WIyWlLk6GJQsqaUBKTNV-1" source="cW8ALHQhy1l2QDehml8E-57" target="cW8ALHQhy1l2QDehml8E-61">
          <mxGeometry width="50" height="50" relative="1" as="geometry">
            <mxPoint x="150" y="820" as="sourcePoint" />
            <mxPoint x="200" y="770" as="targetPoint" />
          </mxGeometry>
        </mxCell>
        <mxCell id="cW8ALHQhy1l2QDehml8E-74" value="" style="endArrow=classic;html=1;entryX=0.5;entryY=0;entryDx=0;entryDy=0;entryPerimeter=0;exitX=0.5;exitY=1;exitDx=0;exitDy=0;" edge="1" parent="WIyWlLk6GJQsqaUBKTNV-1" source="cW8ALHQhy1l2QDehml8E-61" target="cW8ALHQhy1l2QDehml8E-63">
          <mxGeometry width="50" height="50" relative="1" as="geometry">
            <mxPoint x="150" y="820" as="sourcePoint" />
            <mxPoint x="200" y="770" as="targetPoint" />
          </mxGeometry>
        </mxCell>
        <mxCell id="cW8ALHQhy1l2QDehml8E-75" value="" style="shape=trapezoid;perimeter=trapezoidPerimeter;whiteSpace=wrap;html=1;fixedSize=1;direction=west;" vertex="1" parent="WIyWlLk6GJQsqaUBKTNV-1">
          <mxGeometry x="155" y="940" width="100" height="40" as="geometry" />
        </mxCell>
        <mxCell id="cW8ALHQhy1l2QDehml8E-76" value="" style="shape=trapezoid;perimeter=trapezoidPerimeter;whiteSpace=wrap;html=1;fixedSize=1;direction=west;" vertex="1" parent="WIyWlLk6GJQsqaUBKTNV-1">
          <mxGeometry x="582.5" y="940" width="100" height="40" as="geometry" />
        </mxCell>
        <mxCell id="cW8ALHQhy1l2QDehml8E-78" value="" style="endArrow=classic;html=1;exitX=0.5;exitY=1;exitDx=0;exitDy=0;exitPerimeter=0;entryX=0.75;entryY=1;entryDx=0;entryDy=0;" edge="1" parent="WIyWlLk6GJQsqaUBKTNV-1" source="cW8ALHQhy1l2QDehml8E-66" target="cW8ALHQhy1l2QDehml8E-75">
          <mxGeometry width="50" height="50" relative="1" as="geometry">
            <mxPoint x="150" y="760" as="sourcePoint" />
            <mxPoint x="200" y="710" as="targetPoint" />
          </mxGeometry>
        </mxCell>
        <mxCell id="cW8ALHQhy1l2QDehml8E-80" value="" style="endArrow=classic;html=1;exitX=0.5;exitY=1;exitDx=0;exitDy=0;exitPerimeter=0;entryX=0.75;entryY=1;entryDx=0;entryDy=0;" edge="1" parent="WIyWlLk6GJQsqaUBKTNV-1" source="cW8ALHQhy1l2QDehml8E-63" target="cW8ALHQhy1l2QDehml8E-76">
          <mxGeometry width="50" height="50" relative="1" as="geometry">
            <mxPoint x="150" y="760" as="sourcePoint" />
            <mxPoint x="200" y="710" as="targetPoint" />
          </mxGeometry>
        </mxCell>
        <mxCell id="cW8ALHQhy1l2QDehml8E-81" value="" style="endArrow=classic;html=1;exitX=0.75;exitY=0;exitDx=0;exitDy=0;entryX=0;entryY=0.5;entryDx=0;entryDy=0;" edge="1" parent="WIyWlLk6GJQsqaUBKTNV-1" source="cW8ALHQhy1l2QDehml8E-75" target="cW8ALHQhy1l2QDehml8E-53">
          <mxGeometry width="50" height="50" relative="1" as="geometry">
            <mxPoint x="150" y="840" as="sourcePoint" />
            <mxPoint x="200" y="790" as="targetPoint" />
            <Array as="points">
              <mxPoint x="180" y="1010" />
              <mxPoint x="60" y="1010" />
              <mxPoint x="60" y="655" />
            </Array>
          </mxGeometry>
        </mxCell>
        <mxCell id="cW8ALHQhy1l2QDehml8E-82" value="" style="endArrow=classic;html=1;entryX=1;entryY=0.5;entryDx=0;entryDy=0;exitX=0.25;exitY=0;exitDx=0;exitDy=0;" edge="1" parent="WIyWlLk6GJQsqaUBKTNV-1" source="cW8ALHQhy1l2QDehml8E-76" target="cW8ALHQhy1l2QDehml8E-54">
          <mxGeometry width="50" height="50" relative="1" as="geometry">
            <mxPoint x="150" y="760" as="sourcePoint" />
            <mxPoint x="200" y="710" as="targetPoint" />
            <Array as="points">
              <mxPoint x="658" y="990" />
              <mxPoint x="730" y="990" />
              <mxPoint x="730" y="655" />
            </Array>
          </mxGeometry>
        </mxCell>
        <mxCell id="cW8ALHQhy1l2QDehml8E-83" value="&lt;div&gt;output word (Decrypted)&lt;/div&gt;&lt;div&gt;(64 bit)&lt;br&gt;&lt;/div&gt;" style="rounded=0;whiteSpace=wrap;html=1;" vertex="1" parent="WIyWlLk6GJQsqaUBKTNV-1">
          <mxGeometry x="280" y="1040" width="230" height="40" as="geometry" />
        </mxCell>
        <mxCell id="cW8ALHQhy1l2QDehml8E-84" value="" style="endArrow=classic;html=1;exitX=0.25;exitY=0;exitDx=0;exitDy=0;entryX=0.25;entryY=0;entryDx=0;entryDy=0;" edge="1" parent="WIyWlLk6GJQsqaUBKTNV-1" source="cW8ALHQhy1l2QDehml8E-75" target="cW8ALHQhy1l2QDehml8E-83">
          <mxGeometry width="50" height="50" relative="1" as="geometry">
            <mxPoint x="150" y="960" as="sourcePoint" />
            <mxPoint x="200" y="910" as="targetPoint" />
            <Array as="points">
              <mxPoint x="230" y="1020" />
              <mxPoint x="338" y="1020" />
            </Array>
          </mxGeometry>
        </mxCell>
        <mxCell id="cW8ALHQhy1l2QDehml8E-85" value="" style="endArrow=classic;html=1;exitX=0.25;exitY=1;exitDx=0;exitDy=0;entryX=0.46;entryY=-0.055;entryDx=0;entryDy=0;entryPerimeter=0;" edge="1" parent="WIyWlLk6GJQsqaUBKTNV-1" source="cW8ALHQhy1l2QDehml8E-49" target="cW8ALHQhy1l2QDehml8E-53">
          <mxGeometry width="50" height="50" relative="1" as="geometry">
            <mxPoint x="150" y="790" as="sourcePoint" />
            <mxPoint x="200" y="740" as="targetPoint" />
            <Array as="points">
              <mxPoint x="338" y="600" />
              <mxPoint x="260" y="600" />
              <mxPoint x="173" y="600" />
            </Array>
          </mxGeometry>
        </mxCell>
        <mxCell id="cW8ALHQhy1l2QDehml8E-86" value="" style="endArrow=classic;html=1;exitX=0.75;exitY=1;exitDx=0;exitDy=0;entryX=0.5;entryY=0;entryDx=0;entryDy=0;" edge="1" parent="WIyWlLk6GJQsqaUBKTNV-1" source="cW8ALHQhy1l2QDehml8E-49" target="cW8ALHQhy1l2QDehml8E-54">
          <mxGeometry width="50" height="50" relative="1" as="geometry">
            <mxPoint x="150" y="760" as="sourcePoint" />
            <mxPoint x="200" y="710" as="targetPoint" />
            <Array as="points">
              <mxPoint x="452" y="600" />
              <mxPoint x="608" y="600" />
            </Array>
          </mxGeometry>
        </mxCell>
        <mxCell id="cW8ALHQhy1l2QDehml8E-87" value="&lt;div align=&quot;justify&quot;&gt;&lt;font style=&quot;font-size: 18px&quot;&gt;DECRYPTION MODULE&lt;/font&gt;&lt;/div&gt;" style="text;html=1;strokeColor=none;fillColor=none;align=center;verticalAlign=middle;whiteSpace=wrap;rounded=0;" vertex="1" parent="WIyWlLk6GJQsqaUBKTNV-1">
          <mxGeometry x="285" y="1110" width="220" height="40" as="geometry" />
        </mxCell>
        <mxCell id="cW8ALHQhy1l2QDehml8E-88" value="" style="endArrow=none;dashed=1;html=1;" edge="1" parent="WIyWlLk6GJQsqaUBKTNV-1">
          <mxGeometry width="50" height="50" relative="1" as="geometry">
            <mxPoint y="540" as="sourcePoint" />
            <mxPoint x="280" y="540" as="targetPoint" />
          </mxGeometry>
        </mxCell>
        <mxCell id="cW8ALHQhy1l2QDehml8E-89" value="" style="endArrow=none;dashed=1;html=1;exitX=1;exitY=0.5;exitDx=0;exitDy=0;" edge="1" parent="WIyWlLk6GJQsqaUBKTNV-1" source="cW8ALHQhy1l2QDehml8E-49">
          <mxGeometry width="50" height="50" relative="1" as="geometry">
            <mxPoint x="150" y="620" as="sourcePoint" />
            <mxPoint x="800" y="540" as="targetPoint" />
          </mxGeometry>
        </mxCell>
        <mxCell id="cW8ALHQhy1l2QDehml8E-90" value="&lt;div align=&quot;justify&quot;&gt;&lt;font style=&quot;font-size: 18px&quot;&gt;ENCRYPTION MODULE&lt;/font&gt;&lt;/div&gt;" style="text;html=1;strokeColor=none;fillColor=none;align=center;verticalAlign=middle;whiteSpace=wrap;rounded=0;" vertex="1" parent="WIyWlLk6GJQsqaUBKTNV-1">
          <mxGeometry x="285" y="10" width="220" height="40" as="geometry" />
        </mxCell>
        <mxCell id="cW8ALHQhy1l2QDehml8E-91" value="" style="endArrow=classic;html=1;entryX=0;entryY=0.5;entryDx=0;entryDy=0;entryPerimeter=0;" edge="1" parent="WIyWlLk6GJQsqaUBKTNV-1" target="cW8ALHQhy1l2QDehml8E-3">
          <mxGeometry width="50" height="50" relative="1" as="geometry">
            <mxPoint x="180" y="390" as="sourcePoint" />
            <mxPoint x="180" y="260" as="targetPoint" />
            <Array as="points">
              <mxPoint x="510" y="390" />
              <mxPoint x="510" y="265" />
            </Array>
          </mxGeometry>
        </mxCell>
        <mxCell id="cW8ALHQhy1l2QDehml8E-92" value="" style="endArrow=classic;html=1;entryX=0;entryY=0.5;entryDx=0;entryDy=0;" edge="1" parent="WIyWlLk6GJQsqaUBKTNV-1" target="cW8ALHQhy1l2QDehml8E-14">
          <mxGeometry width="50" height="50" relative="1" as="geometry">
            <mxPoint x="510" y="325" as="sourcePoint" />
            <mxPoint x="180" y="260" as="targetPoint" />
          </mxGeometry>
        </mxCell>
        <mxCell id="cW8ALHQhy1l2QDehml8E-96" value="" style="endArrow=classic;html=1;entryX=0;entryY=0.5;entryDx=0;entryDy=0;entryPerimeter=0;" edge="1" parent="WIyWlLk6GJQsqaUBKTNV-1" target="cW8ALHQhy1l2QDehml8E-63">
          <mxGeometry width="50" height="50" relative="1" as="geometry">
            <mxPoint x="180" y="680" as="sourcePoint" />
            <mxPoint x="180" y="670" as="targetPoint" />
            <Array as="points">
              <mxPoint x="400" y="680" />
              <mxPoint x="400" y="875" />
            </Array>
          </mxGeometry>
        </mxCell>
        <mxCell id="cW8ALHQhy1l2QDehml8E-98" value="" style="endArrow=classic;html=1;entryX=0;entryY=0.5;entryDx=0;entryDy=0;" edge="1" parent="WIyWlLk6GJQsqaUBKTNV-1" target="cW8ALHQhy1l2QDehml8E-61">
          <mxGeometry width="50" height="50" relative="1" as="geometry">
            <mxPoint x="400" y="795" as="sourcePoint" />
            <mxPoint x="180" y="730" as="targetPoint" />
          </mxGeometry>
        </mxCell>
        <mxCell id="cW8ALHQhy1l2QDehml8E-99" value="ADD" style="text;html=1;strokeColor=none;fillColor=none;align=center;verticalAlign=middle;whiteSpace=wrap;rounded=0;" vertex="1" parent="WIyWlLk6GJQsqaUBKTNV-1">
          <mxGeometry x="80" y="715" width="40" height="20" as="geometry" />
        </mxCell>
        <mxCell id="cW8ALHQhy1l2QDehml8E-100" value="&lt;div&gt;ROTATE&lt;/div&gt;&lt;div&gt;RIGHT&lt;br&gt;&lt;/div&gt;" style="text;html=1;strokeColor=none;fillColor=none;align=center;verticalAlign=middle;whiteSpace=wrap;rounded=0;" vertex="1" parent="WIyWlLk6GJQsqaUBKTNV-1">
          <mxGeometry x="80" y="785" width="40" height="20" as="geometry" />
        </mxCell>
        <mxCell id="cW8ALHQhy1l2QDehml8E-101" value="XOR" style="text;html=1;strokeColor=none;fillColor=none;align=center;verticalAlign=middle;whiteSpace=wrap;rounded=0;" vertex="1" parent="WIyWlLk6GJQsqaUBKTNV-1">
          <mxGeometry x="80" y="865" width="40" height="20" as="geometry" />
        </mxCell>
        <mxCell id="cW8ALHQhy1l2QDehml8E-102" value="COMPARE" style="text;html=1;strokeColor=none;fillColor=none;align=center;verticalAlign=middle;whiteSpace=wrap;rounded=0;" vertex="1" parent="WIyWlLk6GJQsqaUBKTNV-1">
          <mxGeometry x="80" y="950" width="40" height="20" as="geometry" />
        </mxCell>
        <mxCell id="cW8ALHQhy1l2QDehml8E-103" value="COMPARE" style="text;html=1;strokeColor=none;fillColor=none;align=center;verticalAlign=middle;whiteSpace=wrap;rounded=0;" vertex="1" parent="WIyWlLk6GJQsqaUBKTNV-1">
          <mxGeometry x="682.5" y="1000" width="40" height="20" as="geometry" />
        </mxCell>
        <mxCell id="cW8ALHQhy1l2QDehml8E-104" value="XOR" style="text;html=1;strokeColor=none;fillColor=none;align=center;verticalAlign=middle;whiteSpace=wrap;rounded=0;" vertex="1" parent="WIyWlLk6GJQsqaUBKTNV-1">
          <mxGeometry x="682.5" y="865" width="40" height="20" as="geometry" />
        </mxCell>
        <mxCell id="cW8ALHQhy1l2QDehml8E-105" value="&lt;div&gt;ROTATE&lt;/div&gt;&lt;div&gt;RIGHT&lt;br&gt;&lt;/div&gt;" style="text;html=1;strokeColor=none;fillColor=none;align=center;verticalAlign=middle;whiteSpace=wrap;rounded=0;" vertex="1" parent="WIyWlLk6GJQsqaUBKTNV-1">
          <mxGeometry x="682.5" y="785" width="40" height="20" as="geometry" />
        </mxCell>
        <mxCell id="cW8ALHQhy1l2QDehml8E-106" value="ADD" style="text;html=1;strokeColor=none;fillColor=none;align=center;verticalAlign=middle;whiteSpace=wrap;rounded=0;" vertex="1" parent="WIyWlLk6GJQsqaUBKTNV-1">
          <mxGeometry x="682.5" y="715" width="40" height="20" as="geometry" />
        </mxCell>
        <mxCell id="cW8ALHQhy1l2QDehml8E-109" value="COMPARE" style="text;html=1;strokeColor=none;fillColor=none;align=center;verticalAlign=middle;whiteSpace=wrap;rounded=0;" vertex="1" parent="WIyWlLk6GJQsqaUBKTNV-1">
          <mxGeometry x="80" y="430" width="40" height="20" as="geometry" />
        </mxCell>
        <mxCell id="cW8ALHQhy1l2QDehml8E-110" value="XOR" style="text;html=1;strokeColor=none;fillColor=none;align=center;verticalAlign=middle;whiteSpace=wrap;rounded=0;" vertex="1" parent="WIyWlLk6GJQsqaUBKTNV-1">
          <mxGeometry x="80" y="205" width="40" height="20" as="geometry" />
        </mxCell>
        <mxCell id="cW8ALHQhy1l2QDehml8E-111" value="&lt;div&gt;ROTATE&lt;/div&gt;&lt;div&gt;LEFT&lt;br&gt;&lt;/div&gt;" style="text;html=1;strokeColor=none;fillColor=none;align=center;verticalAlign=middle;whiteSpace=wrap;rounded=0;" vertex="1" parent="WIyWlLk6GJQsqaUBKTNV-1">
          <mxGeometry x="80" y="265" width="40" height="20" as="geometry" />
        </mxCell>
        <mxCell id="cW8ALHQhy1l2QDehml8E-112" value="ADD" style="text;html=1;strokeColor=none;fillColor=none;align=center;verticalAlign=middle;whiteSpace=wrap;rounded=0;" vertex="1" parent="WIyWlLk6GJQsqaUBKTNV-1">
          <mxGeometry x="80" y="335" width="40" height="20" as="geometry" />
        </mxCell>
        <mxCell id="cW8ALHQhy1l2QDehml8E-115" value="XOR" style="text;html=1;strokeColor=none;fillColor=none;align=center;verticalAlign=middle;whiteSpace=wrap;rounded=0;" vertex="1" parent="WIyWlLk6GJQsqaUBKTNV-1">
          <mxGeometry x="670" y="250" width="40" height="20" as="geometry" />
        </mxCell>
        <mxCell id="cW8ALHQhy1l2QDehml8E-116" value="&lt;div&gt;ROTATE&lt;/div&gt;&lt;div&gt;LEFT&lt;br&gt;&lt;/div&gt;" style="text;html=1;strokeColor=none;fillColor=none;align=center;verticalAlign=middle;whiteSpace=wrap;rounded=0;" vertex="1" parent="WIyWlLk6GJQsqaUBKTNV-1">
          <mxGeometry x="670" y="310" width="40" height="20" as="geometry" />
        </mxCell>
        <mxCell id="cW8ALHQhy1l2QDehml8E-117" value="ADD" style="text;html=1;strokeColor=none;fillColor=none;align=center;verticalAlign=middle;whiteSpace=wrap;rounded=0;" vertex="1" parent="WIyWlLk6GJQsqaUBKTNV-1">
          <mxGeometry x="670" y="360" width="40" height="20" as="geometry" />
        </mxCell>
        <mxCell id="cW8ALHQhy1l2QDehml8E-118" value="COMPARE" style="text;html=1;strokeColor=none;fillColor=none;align=center;verticalAlign=middle;whiteSpace=wrap;rounded=0;" vertex="1" parent="WIyWlLk6GJQsqaUBKTNV-1">
          <mxGeometry x="670" y="490" width="40" height="20" as="geometry" />
        </mxCell>
        <mxCell id="cW8ALHQhy1l2QDehml8E-124" style="edgeStyle=orthogonalEdgeStyle;rounded=0;orthogonalLoop=1;jettySize=auto;html=1;exitX=0.75;exitY=0;exitDx=0;exitDy=0;entryX=0.25;entryY=1;entryDx=0;entryDy=0;" edge="1" parent="WIyWlLk6GJQsqaUBKTNV-1" source="cW8ALHQhy1l2QDehml8E-119" target="cW8ALHQhy1l2QDehml8E-40">
          <mxGeometry relative="1" as="geometry">
            <Array as="points">
              <mxPoint x="413" y="420" />
              <mxPoint x="657" y="420" />
            </Array>
          </mxGeometry>
        </mxCell>
        <mxCell id="cW8ALHQhy1l2QDehml8E-125" style="edgeStyle=orthogonalEdgeStyle;rounded=0;orthogonalLoop=1;jettySize=auto;html=1;exitX=0.25;exitY=0;exitDx=0;exitDy=0;entryX=0.25;entryY=1;entryDx=0;entryDy=0;" edge="1" parent="WIyWlLk6GJQsqaUBKTNV-1" source="cW8ALHQhy1l2QDehml8E-119" target="cW8ALHQhy1l2QDehml8E-34">
          <mxGeometry relative="1" as="geometry" />
        </mxCell>
        <mxCell id="cW8ALHQhy1l2QDehml8E-119" value="MAX COUNT" style="whiteSpace=wrap;html=1;align=center;verticalAlign=middle;treeFolding=1;treeMoving=1;newEdgeStyle={&quot;edgeStyle&quot;:&quot;elbowEdgeStyle&quot;,&quot;startArrow&quot;:&quot;none&quot;,&quot;endArrow&quot;:&quot;none&quot;};" vertex="1" collapsed="1" parent="WIyWlLk6GJQsqaUBKTNV-1">
          <mxGeometry x="330" y="430" width="110" height="30" as="geometry" />
        </mxCell>
        <mxCell id="cW8ALHQhy1l2QDehml8E-126" value="MAX COUNT" style="whiteSpace=wrap;html=1;align=center;verticalAlign=middle;treeFolding=1;treeMoving=1;newEdgeStyle={&quot;edgeStyle&quot;:&quot;elbowEdgeStyle&quot;,&quot;startArrow&quot;:&quot;none&quot;,&quot;endArrow&quot;:&quot;none&quot;};" vertex="1" collapsed="1" parent="WIyWlLk6GJQsqaUBKTNV-1">
          <mxGeometry x="330" y="960" width="110" height="30" as="geometry" />
        </mxCell>
        <mxCell id="cW8ALHQhy1l2QDehml8E-127" style="edgeStyle=orthogonalEdgeStyle;rounded=0;orthogonalLoop=1;jettySize=auto;html=1;exitX=0.25;exitY=0;exitDx=0;exitDy=0;entryX=0.148;entryY=1.012;entryDx=0;entryDy=0;entryPerimeter=0;" edge="1" source="cW8ALHQhy1l2QDehml8E-126" parent="WIyWlLk6GJQsqaUBKTNV-1" target="cW8ALHQhy1l2QDehml8E-75">
          <mxGeometry relative="1" as="geometry">
            <mxPoint x="225" y="940" as="targetPoint" />
          </mxGeometry>
        </mxCell>
        <mxCell id="cW8ALHQhy1l2QDehml8E-128" style="edgeStyle=orthogonalEdgeStyle;rounded=0;orthogonalLoop=1;jettySize=auto;html=1;exitX=0.75;exitY=0;exitDx=0;exitDy=0;entryX=0.25;entryY=1;entryDx=0;entryDy=0;" edge="1" source="cW8ALHQhy1l2QDehml8E-126" parent="WIyWlLk6GJQsqaUBKTNV-1" target="cW8ALHQhy1l2QDehml8E-76">
          <mxGeometry relative="1" as="geometry">
            <mxPoint x="510" y="910" as="targetPoint" />
            <Array as="points">
              <mxPoint x="407" y="920" />
              <mxPoint x="657" y="920" />
            </Array>
          </mxGeometry>
        </mxCell>
        <mxCell id="cW8ALHQhy1l2QDehml8E-129" value="&lt;div&gt;KEY&lt;/div&gt;&lt;div&gt;ROM&lt;br&gt;&lt;/div&gt;" style="rounded=0;whiteSpace=wrap;html=1;" vertex="1" parent="WIyWlLk6GJQsqaUBKTNV-1">
          <mxGeometry x="290" y="740" width="75" height="90" as="geometry" />
        </mxCell>
        <mxCell id="cW8ALHQhy1l2QDehml8E-133" value="" style="endArrow=classic;html=1;entryX=0;entryY=0.5;entryDx=0;entryDy=0;exitX=0.933;exitY=0.389;exitDx=0;exitDy=0;exitPerimeter=0;" edge="1" parent="WIyWlLk6GJQsqaUBKTNV-1" source="cW8ALHQhy1l2QDehml8E-129" target="cW8ALHQhy1l2QDehml8E-57">
          <mxGeometry width="50" height="50" relative="1" as="geometry">
            <mxPoint x="380" y="725" as="sourcePoint" />
            <mxPoint x="180" y="840" as="targetPoint" />
            <Array as="points">
              <mxPoint x="520" y="770" />
              <mxPoint x="520" y="725" />
            </Array>
          </mxGeometry>
        </mxCell>
        <mxCell id="cW8ALHQhy1l2QDehml8E-138" value="" style="endArrow=classic;html=1;entryX=0.5;entryY=1;entryDx=0;entryDy=0;" edge="1" parent="WIyWlLk6GJQsqaUBKTNV-1" target="cW8ALHQhy1l2QDehml8E-129">
          <mxGeometry width="50" height="50" relative="1" as="geometry">
            <mxPoint x="328" y="850" as="sourcePoint" />
            <mxPoint x="180" y="840" as="targetPoint" />
          </mxGeometry>
        </mxCell>
        <mxCell id="cW8ALHQhy1l2QDehml8E-139" value="ADDRESS" style="text;html=1;strokeColor=none;fillColor=none;align=center;verticalAlign=middle;whiteSpace=wrap;rounded=0;" vertex="1" parent="WIyWlLk6GJQsqaUBKTNV-1">
          <mxGeometry x="307.5" y="850" width="40" height="20" as="geometry" />
        </mxCell>
        <mxCell id="cW8ALHQhy1l2QDehml8E-143" style="edgeStyle=orthogonalEdgeStyle;rounded=0;orthogonalLoop=1;jettySize=auto;html=1;exitX=0;exitY=0.25;exitDx=0;exitDy=0;entryX=1;entryY=0.5;entryDx=0;entryDy=0;" edge="1" parent="WIyWlLk6GJQsqaUBKTNV-1" source="cW8ALHQhy1l2QDehml8E-140" target="cW8ALHQhy1l2QDehml8E-11">
          <mxGeometry relative="1" as="geometry">
            <mxPoint x="290" y="350" as="targetPoint" />
            <Array as="points">
              <mxPoint x="290" y="262" />
              <mxPoint x="290" y="345" />
            </Array>
          </mxGeometry>
        </mxCell>
        <mxCell id="cW8ALHQhy1l2QDehml8E-144" style="edgeStyle=orthogonalEdgeStyle;rounded=0;orthogonalLoop=1;jettySize=auto;html=1;exitX=1;exitY=0.25;exitDx=0;exitDy=0;entryX=0;entryY=0.5;entryDx=0;entryDy=0;" edge="1" parent="WIyWlLk6GJQsqaUBKTNV-1" source="cW8ALHQhy1l2QDehml8E-140" target="cW8ALHQhy1l2QDehml8E-12">
          <mxGeometry relative="1" as="geometry">
            <mxPoint x="450" y="400" as="targetPoint" />
            <Array as="points">
              <mxPoint x="460" y="262" />
              <mxPoint x="460" y="360" />
              <mxPoint x="550" y="360" />
              <mxPoint x="550" y="385" />
            </Array>
          </mxGeometry>
        </mxCell>
        <mxCell id="cW8ALHQhy1l2QDehml8E-140" value="&lt;div&gt;KEY&lt;/div&gt;&lt;div&gt;ROM&lt;br&gt;&lt;/div&gt;" style="rounded=0;whiteSpace=wrap;html=1;" vertex="1" parent="WIyWlLk6GJQsqaUBKTNV-1">
          <mxGeometry x="338" y="240" width="75" height="90" as="geometry" />
        </mxCell>
        <mxCell id="cW8ALHQhy1l2QDehml8E-141" value="ADDRESS" style="text;html=1;strokeColor=none;fillColor=none;align=center;verticalAlign=middle;whiteSpace=wrap;rounded=0;" vertex="1" parent="WIyWlLk6GJQsqaUBKTNV-1">
          <mxGeometry x="355.5" y="350" width="40" height="20" as="geometry" />
        </mxCell>
        <mxCell id="cW8ALHQhy1l2QDehml8E-142" value="" style="endArrow=classic;html=1;entryX=0.5;entryY=1;entryDx=0;entryDy=0;exitX=0.5;exitY=0;exitDx=0;exitDy=0;" edge="1" parent="WIyWlLk6GJQsqaUBKTNV-1" source="cW8ALHQhy1l2QDehml8E-141" target="cW8ALHQhy1l2QDehml8E-140">
          <mxGeometry width="50" height="50" relative="1" as="geometry">
            <mxPoint x="130" y="640" as="sourcePoint" />
            <mxPoint x="180" y="590" as="targetPoint" />
          </mxGeometry>
        </mxCell>
        <mxCell id="cW8ALHQhy1l2QDehml8E-149" value="" style="endArrow=classic;html=1;entryX=1;entryY=0.5;entryDx=0;entryDy=0;" edge="1" parent="WIyWlLk6GJQsqaUBKTNV-1" target="cW8ALHQhy1l2QDehml8E-13">
          <mxGeometry width="50" height="50" relative="1" as="geometry">
            <mxPoint x="240" y="210" as="sourcePoint" />
            <mxPoint x="180" y="340" as="targetPoint" />
            <Array as="points">
              <mxPoint x="240" y="275" />
            </Array>
          </mxGeometry>
        </mxCell>
      </root>
    </mxGraphModel>
  </diagram>
</mxfile>
